<?xml version="1.0" encoding="UTF-8"?>
<svg width="1440px" height="1024px" viewBox="0 0 1440 1024" version="1.1" xmlns="http://www.w3.org/2000/svg" xmlns:xlink="http://www.w3.org/1999/xlink">
    <title>Desktop HD</title>
    <defs>
        <linearGradient x1="0%" y1="100%" x2="100%" y2="0%" id="linearGradient-1">
            <stop stop-color="#C8511B" offset="0%"></stop>
            <stop stop-color="#FF9900" offset="100%"></stop>
        </linearGradient>
    </defs>
    <g id="Desktop-HD" stroke="none" stroke-width="1" fill="none" fill-rule="evenodd">
        <g id="AWS-Icons" transform="translate(40.000000, 61.000000)">
            <g id="Amazon-DATABASEAmazon-Aurora-PostgreSQL-instance_Resource-Icon_light-bg" transform="translate(0.000000, 16.000000)" fill="#2E27AD">
                <path d="M37.0056,32.082 C32.4146,32.082 30.0476,30.609 30.0476,29.981 L30.0476,26.451 C31.7766,27.394 34.3976,27.881 37.0056,27.881 C39.6146,27.881 42.2346,27.394 43.9636,26.451 L43.9636,29.981 C43.9636,30.609 41.5966,32.082 37.0056,32.082 L37.0056,32.082 Z M37.0056,38.174 C32.4146,38.174 30.0476,36.701 30.0476,36.073 L30.0476,32.652 C31.7766,33.595 34.3976,34.082 37.0056,34.082 C39.6146,34.082 42.2346,33.595 43.9636,32.652 L43.9636,36.073 C43.9636,36.701 41.5966,38.174 37.0056,38.174 L37.0056,38.174 Z M37.0056,43.613 C32.4146,43.613 30.0476,42.141 30.0476,41.513 L30.0476,38.744 C31.7766,39.686 34.3976,40.174 37.0056,40.174 C39.6146,40.174 42.2346,39.686 43.9636,38.744 L43.9636,41.513 C43.9636,42.141 41.5966,43.613 37.0056,43.613 L37.0056,43.613 Z M37.0056,21.68 C41.5966,21.68 43.9636,23.152 43.9636,23.78 C43.9636,24.408 41.5966,25.881 37.0056,25.881 C32.4146,25.881 30.0476,24.408 30.0476,23.78 C30.0476,23.152 32.4146,21.68 37.0056,21.68 L37.0056,21.68 Z M37.0056,19.68 C32.5546,19.68 28.0476,21.088 28.0476,23.78 L28.0476,41.513 C28.0476,44.205 32.5546,45.613 37.0056,45.613 C41.4566,45.613 45.9636,44.205 45.9636,41.513 L45.9636,23.78 C45.9636,21.088 41.4566,19.68 37.0056,19.68 L37.0056,19.68 Z M7.7496,43.853 L27.4136,43.853 L27.4136,45.853 L7.7496,45.853 C4.5786,45.853 1.9996,43.274 1.9996,40.103 L1.9996,7.751 C1.9996,4.58 4.5786,2 7.7496,2 L40.1036,2 C43.2746,2 45.8536,4.58 45.8536,7.751 L45.8536,20.439 L43.8536,20.439 L43.8536,7.751 C43.8536,5.683 42.1706,4 40.1036,4 L7.7496,4 C5.6826,4 3.9996,5.683 3.9996,7.751 L3.9996,40.103 C3.9996,42.171 5.6826,43.853 7.7496,43.853 L7.7496,43.853 Z M40.6286,7.805 L40.6286,13.141 L42.8256,13.141 L42.8256,13.848 L39.7826,13.848 L39.7826,7.805 L40.6286,7.805 Z M36.3296,13.263 C35.8596,13.263 35.5046,13.059 35.2666,12.648 C35.0276,12.238 34.9086,11.633 34.9086,10.83 C34.9086,10.028 35.0276,9.424 35.2666,9.017 C35.5046,8.61 35.8596,8.406 36.3296,8.406 C36.8006,8.406 37.1546,8.61 37.3946,9.017 C37.6316,9.424 37.7506,10.028 37.7506,10.83 C37.7506,11.633 37.6316,12.238 37.3946,12.648 C37.1546,13.059 36.8006,13.263 36.3296,13.263 L36.3296,13.263 Z M38.1956,12.857 C38.4746,12.331 38.6136,11.656 38.6136,10.83 C38.6136,9.836 38.4136,9.064 38.0126,8.515 C37.6116,7.966 37.0506,7.691 36.3296,7.691 C35.6096,7.691 35.0486,7.966 34.6476,8.515 C34.2456,9.064 34.0456,9.836 34.0456,10.83 C34.0456,11.464 34.1286,12.013 34.2936,12.478 C34.4596,12.943 34.7046,13.304 35.0306,13.56 C35.3566,13.815 35.7486,13.954 36.2076,13.978 C36.5396,14.339 36.9016,14.626 37.2976,14.842 C37.6926,15.057 38.1116,15.193 38.5536,15.251 L38.5536,14.51 C38.2506,14.476 37.9756,14.408 37.7256,14.31 C37.4756,14.21 37.2346,14.068 37.0016,13.882 C37.5186,13.725 37.9166,13.384 38.1956,12.857 L38.1956,12.857 Z M32.0966,12.993 C32.2746,12.818 32.3626,12.577 32.3626,12.269 C32.3626,11.851 32.1306,11.522 31.6656,11.284 L31.0456,10.97 C30.6566,10.772 30.3746,10.546 30.1996,10.29 C30.0266,10.034 29.9386,9.72 29.9386,9.348 C29.9386,8.854 30.0926,8.454 30.4016,8.149 C30.7086,7.844 31.1126,7.691 31.6126,7.691 C32.0016,7.691 32.4386,7.796 32.9206,8.005 L32.9206,8.686 C32.5256,8.505 32.1096,8.415 31.6736,8.415 C31.4006,8.415 31.1846,8.495 31.0246,8.654 C30.8636,8.814 30.7846,9.031 30.7846,9.305 C30.7846,9.52 30.8396,9.702 30.9496,9.853 C31.0606,10.005 31.2436,10.147 31.4996,10.281 L32.1176,10.595 C32.4966,10.787 32.7746,11.014 32.9506,11.274 C33.1286,11.537 33.2176,11.851 33.2176,12.217 C33.2176,12.746 33.0516,13.172 32.7206,13.494 C32.3886,13.816 31.9466,13.978 31.3956,13.978 C31.1266,13.978 30.8696,13.947 30.6226,13.887 C30.3756,13.825 30.1626,13.737 29.9826,13.621 L29.9826,12.949 C30.4586,13.153 30.9206,13.254 31.3686,13.254 C31.6766,13.254 31.9196,13.167 32.0966,12.993 L32.0966,12.993 Z M27.0736,10.268 C27.2226,10.044 27.4306,9.932 27.6976,9.932 C27.9366,9.932 28.1126,10.02 28.2296,10.198 C28.3456,10.376 28.4036,10.65 28.4036,11.021 C28.4036,11.062 28.4016,11.103 28.3996,11.145 C28.3966,11.185 28.3956,11.223 28.3956,11.258 L26.8256,11.258 C26.8436,10.821 26.9256,10.492 27.0736,10.268 L27.0736,10.268 Z M29.0496,13.027 C28.6486,13.208 28.2816,13.298 27.9506,13.298 C27.5616,13.298 27.2766,13.182 27.1006,12.949 C26.9226,12.717 26.8316,12.339 26.8256,11.815 L29.0586,11.815 C29.1046,11.595 29.1276,11.353 29.1276,11.092 C29.1276,10.505 29.0096,10.061 28.7746,9.758 C28.5386,9.456 28.1916,9.305 27.7326,9.305 C27.1926,9.305 26.7766,9.505 26.4856,9.906 C26.1946,10.307 26.0496,10.883 26.0496,11.633 C26.0496,12.417 26.1946,13.001 26.4856,13.386 C26.7766,13.769 27.2176,13.961 27.8116,13.961 C28.2816,13.961 28.6936,13.851 29.0496,13.629 L29.0496,13.027 Z M24.7986,9.526 C24.9696,9.436 25.1656,9.392 25.3866,9.392 C25.4806,9.392 25.5726,9.4 25.6656,9.418 L25.6656,10.177 C25.5026,10.153 25.3716,10.142 25.2736,10.142 C24.9426,10.142 24.6406,10.249 24.3666,10.464 L24.3666,13.848 L23.5466,13.848 L23.5466,9.427 L24.2276,9.427 L24.3056,9.958 C24.4626,9.761 24.6266,9.617 24.7986,9.526 L24.7986,9.526 Z M20.8096,13.089 C20.5186,13.089 20.3036,12.962 20.1646,12.709 C20.0256,12.456 19.9546,12.068 19.9546,11.545 C19.9546,11.011 20.0206,10.616 20.1516,10.363 C20.2816,10.11 20.4866,9.984 20.7666,9.984 C21.0266,9.984 21.2946,10.089 21.5676,10.299 L21.5676,12.757 C21.3006,12.978 21.0476,13.089 20.8096,13.089 L20.8096,13.089 Z M21.3416,14.736 C21.1906,14.958 20.9346,15.067 20.5736,15.067 C20.2426,15.067 19.8596,14.978 19.4236,14.798 L19.4236,15.426 C19.7956,15.641 20.2016,15.748 20.6446,15.748 C21.8006,15.748 22.3796,15.03 22.3796,13.595 L22.3796,9.427 L21.6986,9.427 L21.6386,9.784 C21.3006,9.47 20.9486,9.313 20.5826,9.313 C20.1416,9.313 19.7896,9.517 19.5276,9.924 C19.2666,10.33 19.1356,10.88 19.1356,11.571 C19.1356,12.008 19.1926,12.39 19.3056,12.718 C19.4186,13.046 19.5826,13.303 19.7986,13.485 C20.0136,13.668 20.2696,13.76 20.5656,13.76 C20.9136,13.76 21.2486,13.612 21.5676,13.315 L21.5676,13.638 C21.5676,14.149 21.4916,14.516 21.3416,14.736 L21.3416,14.736 Z M16.6936,12.687 L16.6936,10.089 L16.0746,10.089 L16.0746,9.549 L16.7296,9.444 L16.8506,8.188 L17.5136,8.188 L17.5136,9.427 L18.5256,9.427 L18.5256,10.089 L17.5136,10.089 L17.5136,12.627 C17.5136,12.848 17.5496,13.003 17.6226,13.093 C17.6946,13.183 17.8246,13.228 18.0106,13.228 C18.1906,13.228 18.3676,13.199 18.5426,13.141 L18.5426,13.742 C18.2926,13.848 18.0276,13.899 17.7486,13.899 C17.3886,13.899 17.1226,13.801 16.9506,13.603 C16.7796,13.405 16.6936,13.101 16.6936,12.687 L16.6936,12.687 Z M14.8596,13.145 C14.9776,13.032 15.0376,12.87 15.0376,12.661 C15.0376,12.411 14.8776,12.208 14.5576,12.051 L13.9906,11.772 C13.4676,11.517 13.2066,11.115 13.2066,10.569 C13.2066,10.197 13.3286,9.895 13.5716,9.662 C13.8166,9.43 14.1336,9.313 14.5236,9.313 C14.8896,9.313 15.2406,9.406 15.5776,9.593 L15.5776,10.185 C15.2576,10.034 14.9296,9.958 14.5926,9.958 C14.3956,9.958 14.2376,10.011 14.1216,10.115 C14.0056,10.22 13.9476,10.362 13.9476,10.543 C13.9476,10.688 13.9866,10.81 14.0656,10.909 C14.1436,11.008 14.2766,11.103 14.4616,11.196 L14.9936,11.458 C15.2676,11.592 15.4656,11.752 15.5906,11.937 C15.7166,12.124 15.7776,12.353 15.7776,12.627 C15.7776,13.027 15.6536,13.351 15.4036,13.595 C15.1536,13.839 14.8186,13.961 14.4016,13.961 C13.9526,13.961 13.5466,13.853 13.1806,13.638 L13.1806,13.045 C13.6336,13.226 14.0266,13.315 14.3576,13.315 C14.5716,13.315 14.7386,13.259 14.8596,13.145 L14.8596,13.145 Z M11.4806,12.893 C11.3346,13.163 11.1106,13.298 10.8086,13.298 C10.5066,13.298 10.2816,13.163 10.1376,12.893 C9.9916,12.622 9.9186,12.202 9.9186,11.633 C9.9186,11.062 9.9916,10.645 10.1376,10.377 C10.2816,10.109 10.5066,9.976 10.8086,9.976 C11.1106,9.976 11.3346,10.109 11.4806,10.377 C11.6246,10.645 11.6976,11.062 11.6976,11.633 C11.6976,12.202 11.6246,12.622 11.4806,12.893 L11.4806,12.893 Z M10.8086,9.313 C10.2566,9.313 9.8336,9.514 9.5396,9.915 C9.2466,10.316 9.0996,10.889 9.0996,11.633 C9.0996,12.382 9.2466,12.958 9.5396,13.358 C9.8336,13.76 10.2566,13.961 10.8086,13.961 C11.3606,13.961 11.7836,13.76 12.0766,13.358 C12.3706,12.958 12.5176,12.382 12.5176,11.633 C12.5176,10.889 12.3706,10.316 12.0766,9.915 C11.7836,9.514 11.3606,9.313 10.8086,9.313 L10.8086,9.313 Z M7.3516,10.517 C7.1966,10.726 6.9836,10.83 6.7106,10.83 L5.8476,10.83 L5.8476,8.476 L6.7106,8.476 C6.9836,8.476 7.1966,8.579 7.3516,8.785 C7.5056,8.992 7.5826,9.281 7.5826,9.653 C7.5826,10.02 7.5056,10.307 7.3516,10.517 L7.3516,10.517 Z M7.6566,8.04 C7.4086,7.884 7.1226,7.805 6.7976,7.805 L5.0276,7.805 L5.0276,13.848 L5.8476,13.848 L5.8476,11.502 L6.7976,11.502 C7.2796,11.502 7.6706,11.333 7.9706,10.996 C8.2696,10.659 8.4196,10.211 8.4196,9.653 C8.4196,9.293 8.3546,8.974 8.2236,8.694 C8.0926,8.415 7.9036,8.197 7.6566,8.04 L7.6566,8.04 Z"></path>
            </g>
            <g id="AWS-Amazon-Simple-Storage_Bucket_Resource-Icon_light-bg" transform="translate(0.000000, 111.000000)" fill="#3F8624">
                <path d="M40.5038,26.1601 L40.7278,24.4941 C42.5118,25.5811 43.0628,26.2091 43.2228,26.4741 C42.7498,26.6171 41.7948,26.4911 40.5038,26.1601 L40.5038,26.1601 Z M22.8018,20.1111 C22.8018,20.0581 22.8448,20.0151 22.8978,20.0151 C22.9128,20.0151 22.9238,20.0251 22.9368,20.0321 L22.8638,20.1791 C22.8308,20.1691 22.8018,20.1491 22.8018,20.1111 L22.8018,20.1111 Z M36.5138,40.7981 C36.5078,40.8431 36.5048,40.8871 36.5048,40.9311 C36.5048,41.0861 36.1258,41.6751 34.4408,42.3401 C33.6898,42.6371 32.8028,42.9031 31.8028,43.1331 C29.2278,43.7291 26.0638,44.0571 22.8958,44.0571 C14.4298,44.0571 9.2888,41.8871 9.2888,40.9311 C9.2888,40.8871 9.2858,40.8431 9.2798,40.7981 L5.4408,12.2851 C5.6878,12.4291 5.9528,12.5661 6.2308,12.7001 C6.3098,12.7381 6.3958,12.7741 6.4778,12.8121 C6.7178,12.9231 6.9668,13.0301 7.2268,13.1341 C7.3388,13.1781 7.4518,13.2221 7.5668,13.2651 C7.8428,13.3691 8.1278,13.4691 8.4228,13.5651 C8.5098,13.5941 8.5928,13.6241 8.6808,13.6511 C9.0598,13.7701 9.4528,13.8841 9.8578,13.9911 C9.9708,14.0211 10.0878,14.0501 10.2028,14.0781 C10.5148,14.1581 10.8328,14.2341 11.1578,14.3061 C11.2988,14.3381 11.4388,14.3691 11.5808,14.3981 C11.9458,14.4751 12.3188,14.5491 12.6978,14.6181 C12.7798,14.6331 12.8588,14.6491 12.9418,14.6641 C13.3998,14.7441 13.8688,14.8181 14.3448,14.8881 C14.4788,14.9071 14.6148,14.9241 14.7508,14.9421 C15.1108,14.9921 15.4758,15.0381 15.8438,15.0811 C15.9938,15.0981 16.1448,15.1161 16.2968,15.1331 C16.7408,15.1801 17.1888,15.2231 17.6398,15.2621 C17.6928,15.2661 17.7468,15.2721 17.8018,15.2761 C18.3058,15.3171 18.8128,15.3501 19.3208,15.3801 C19.4658,15.3881 19.6108,15.3941 19.7568,15.4011 C20.1408,15.4201 20.5248,15.4351 20.9088,15.4481 C21.0598,15.4531 21.2088,15.4581 21.3588,15.4621 C21.8718,15.4731 22.3848,15.4821 22.8958,15.4821 C23.4058,15.4821 23.9188,15.4731 24.4318,15.4621 C24.5818,15.4581 24.7328,15.4531 24.8828,15.4481 C25.2678,15.4351 25.6508,15.4201 26.0338,15.4011 C26.1808,15.3941 26.3258,15.3881 26.4718,15.3801 C26.9808,15.3501 27.4868,15.3171 27.9898,15.2761 C28.0458,15.2711 28.1008,15.2651 28.1558,15.2621 C28.6068,15.2231 29.0518,15.1801 29.4938,15.1331 C29.6478,15.1161 29.7988,15.0981 29.9508,15.0811 C30.3168,15.0381 30.6808,14.9921 31.0398,14.9431 C31.1768,14.9251 31.3148,14.9071 31.4498,14.8871 C31.9248,14.8181 32.3928,14.7441 32.8518,14.6641 C32.9348,14.6491 33.0158,14.6331 33.0988,14.6171 C33.4768,14.5491 33.8478,14.4751 34.2128,14.3981 C34.3558,14.3691 34.4948,14.3381 34.6358,14.3061 C34.9608,14.2331 35.2788,14.1571 35.5918,14.0781 C35.7058,14.0491 35.8228,14.0211 35.9358,13.9921 C36.3418,13.8841 36.7348,13.7701 37.1138,13.6511 C37.2008,13.6241 37.2828,13.5951 37.3678,13.5661 C37.6648,13.4701 37.9518,13.3691 38.2298,13.2641 C38.3428,13.2221 38.4548,13.1791 38.5658,13.1351 C38.8278,13.0301 39.0788,12.9221 39.3218,12.8101 C39.4008,12.7731 39.4848,12.7381 39.5628,12.7011 C39.8408,12.5671 40.1068,12.4291 40.3538,12.2851 L38.5618,25.5911 C34.9248,24.4241 29.8168,22.3071 24.9818,20.0081 C24.9268,18.9011 24.0178,18.0151 22.8978,18.0151 C21.7418,18.0151 20.8018,18.9561 20.8018,20.1111 C20.8018,21.2661 21.7418,22.2061 22.8978,22.2061 C23.3518,22.2061 23.7698,22.0571 24.1128,21.8101 C28.4448,23.8891 33.9758,26.3421 38.2928,27.5881 L36.5138,40.7981 Z M22.8958,4.0001 C33.3148,4.0001 40.6558,7.2281 40.7918,9.0211 L40.7658,9.2291 C40.7478,9.2911 40.7088,9.3541 40.6758,9.4181 C40.6488,9.4701 40.6288,9.5201 40.5918,9.5731 C40.5478,9.6351 40.4828,9.6981 40.4258,9.7611 C40.3748,9.8161 40.3318,9.8711 40.2708,9.9271 C40.2028,9.9881 40.1158,10.0511 40.0348,10.1131 C39.9598,10.1711 39.8938,10.2281 39.8078,10.2871 C39.7168,10.3471 39.6078,10.4091 39.5058,10.4711 C39.4068,10.5301 39.3158,10.5901 39.2048,10.6491 C39.0948,10.7091 38.9658,10.7671 38.8448,10.8271 C38.7208,10.8881 38.6048,10.9481 38.4688,11.0091 C38.3398,11.0661 38.1928,11.1231 38.0548,11.1801 C37.9048,11.2401 37.7638,11.3021 37.6038,11.3611 C37.4558,11.4171 37.2898,11.4711 37.1328,11.5251 C36.9618,11.5841 36.7978,11.6441 36.6158,11.7021 C36.4468,11.7561 36.2608,11.8061 36.0818,11.8591 C35.8918,11.9151 35.7088,11.9721 35.5088,12.0261 C35.3168,12.0781 35.1098,12.1261 34.9098,12.1761 C34.7028,12.2271 34.5028,12.2801 34.2858,12.3301 C34.0698,12.3791 33.8378,12.4241 33.6118,12.4711 C33.3938,12.5161 33.1818,12.5641 32.9538,12.6071 C32.7138,12.6531 32.4568,12.6941 32.2068,12.7371 C31.9768,12.7761 31.7538,12.8181 31.5148,12.8551 C31.2548,12.8951 30.9788,12.9311 30.7088,12.9681 C30.4648,13.0011 30.2268,13.0381 29.9748,13.0681 C29.6818,13.1041 29.3728,13.1341 29.0698,13.1651 C28.8258,13.1911 28.5898,13.2201 28.3398,13.2421 C28.0038,13.2731 27.6518,13.2961 27.3058,13.3201 C27.0728,13.3381 26.8478,13.3581 26.6098,13.3731 C26.2308,13.3951 25.8338,13.4091 25.4408,13.4261 C25.2248,13.4341 25.0148,13.4471 24.7938,13.4541 C24.1748,13.4721 23.5418,13.4821 22.8958,13.4821 C22.2498,13.4821 21.6168,13.4721 20.9968,13.4541 C20.7748,13.4471 20.5628,13.4331 20.3428,13.4251 C19.9528,13.4091 19.5598,13.3951 19.1818,13.3731 C18.9318,13.3571 18.6938,13.3361 18.4488,13.3181 C18.1158,13.2941 17.7758,13.2721 17.4528,13.2421 C17.2018,13.2201 16.9658,13.1901 16.7208,13.1651 C16.4178,13.1341 16.1088,13.1041 15.8168,13.0681 C15.5668,13.0381 15.3298,13.0021 15.0868,12.9681 C14.8168,12.9311 14.5388,12.8961 14.2778,12.8551 C14.0298,12.8171 13.7978,12.7731 13.5588,12.7321 C13.3178,12.6901 13.0708,12.6511 12.8398,12.6071 C12.6078,12.5631 12.3928,12.5151 12.1688,12.4691 C11.9468,12.4221 11.7188,12.3781 11.5058,12.3291 C11.2898,12.2801 11.0908,12.2271 10.8838,12.1761 C10.6838,12.1261 10.4758,12.0781 10.2848,12.0261 C10.0818,11.9721 9.8968,11.9141 9.7038,11.8571 C9.5278,11.8061 9.3448,11.7551 9.1778,11.7021 C8.9928,11.6431 8.8268,11.5831 8.6538,11.5221 C8.4988,11.4691 8.3358,11.4161 8.1908,11.3611 C8.0288,11.3021 7.8878,11.2391 7.7378,11.1791 C7.5998,11.1221 7.4528,11.0651 7.3248,11.0091 C7.1908,10.9481 7.0738,10.8881 6.9498,10.8271 C6.8288,10.7671 6.6988,10.7091 6.5888,10.6481 C6.4788,10.5891 6.3868,10.5291 6.2868,10.4691 C6.1858,10.4081 6.0768,10.3471 5.9868,10.2871 C5.8998,10.2271 5.8318,10.1691 5.7558,10.1101 C5.6768,10.0491 5.5908,9.9871 5.5248,9.9271 C5.4618,9.8701 5.4178,9.8131 5.3658,9.7581 C5.3098,9.6961 5.2468,9.6341 5.2028,9.5731 C5.1648,9.5191 5.1458,9.4671 5.1178,9.4131 C5.0858,9.3511 5.0468,9.2891 5.0298,9.2291 L5.0018,9.0201 C5.1408,7.2271 12.4798,4.0001 22.8958,4.0001 L22.8958,4.0001 Z M45.2548,26.2571 C45.0418,25.1071 43.7168,23.8891 41.0178,22.3471 L42.7338,9.5951 L42.7338,9.5911 L42.7338,9.5901 L42.7848,9.2001 C42.7908,9.1571 42.7938,9.1141 42.7938,9.0711 C42.7938,4.9041 32.3078,2.0001 22.8958,2.0001 C13.4848,2.0001 2.9998,4.9041 2.9998,9.0711 C2.9998,9.1151 3.0028,9.1591 3.0088,9.2031 L3.0608,9.5931 L3.0608,9.5951 L7.2898,41.0091 C7.4208,44.6851 16.9028,46.0571 22.8958,46.0571 C26.2108,46.0571 29.5338,45.7111 32.2528,45.0821 C33.3478,44.8301 34.3308,44.5331 35.1748,44.2001 C37.3408,43.3451 38.4598,42.2711 38.5038,41.0091 L40.2448,28.0801 C41.1968,28.2821 42.0618,28.4051 42.7808,28.4051 C43.7498,28.4051 44.4748,28.2001 44.8668,27.7321 C45.2168,27.3161 45.3548,26.7921 45.2548,26.2571 L45.2548,26.2571 Z"></path>
            </g>
            <g id="Amazon-Elastic-Container-Service-Container-3_Resource-Icon_light-bg" transform="translate(290.000000, 111.000000)" fill="#D45B07">
                <path d="M26.112,31.6134 L28.861,31.6134 L28.861,29.7384 L26.112,29.7384 L26.112,31.6134 Z M17.117,23.9904 L30.858,23.9904 L30.858,16.3714 L17.117,16.3714 L17.117,23.9904 Z M17.993,31.8624 L29.984,31.8624 L29.984,29.4894 L17.993,29.4894 L17.993,31.8624 Z M16.117,25.9914 L22.989,25.9914 L22.989,27.4894 L16.992,27.4894 C16.44,27.4894 15.992,27.9364 15.992,28.4894 L15.992,32.8624 C15.992,33.4144 16.44,33.8624 16.992,33.8624 L30.984,33.8624 C31.536,33.8624 31.984,33.4144 31.984,32.8624 L31.984,28.4894 C31.984,27.9364 31.536,27.4894 30.984,27.4894 L24.989,27.4894 L24.989,25.9914 L31.859,25.9914 C32.411,25.9914 32.859,25.5434 32.859,24.9914 L32.859,15.3714 C32.859,14.8194 32.411,14.3714 31.859,14.3714 L16.117,14.3714 C15.565,14.3714 15.117,14.8194 15.117,15.3714 L15.117,24.9914 C15.117,25.5434 15.565,25.9914 16.117,25.9914 L16.117,25.9914 Z M39.603,33.7364 L41.603,33.7364 L41.603,14.4984 L39.603,14.4984 L39.603,33.7364 Z M34.357,33.7364 L36.357,33.7364 L36.357,14.4984 L34.357,14.4984 L34.357,33.7364 Z M11.62,33.7364 L13.62,33.7364 L13.62,14.4984 L11.62,14.4984 L11.62,33.7364 Z M6.373,33.7364 L8.373,33.7364 L8.373,14.4984 L6.373,14.4984 L6.373,33.7364 Z M4,36.2344 L43.976,36.2344 L43.976,12.0004 L4,12.0004 L4,36.2344 Z M44.976,9.9994 L3,9.9994 C2.448,9.9994 2,10.4474 2,10.9994 L2,37.2344 C2,37.7864 2.448,38.2344 3,38.2344 L44.976,38.2344 C45.529,38.2344 45.976,37.7864 45.976,37.2344 L45.976,10.9994 C45.976,10.4474 45.529,9.9994 44.976,9.9994 L44.976,9.9994 Z"></path>
            </g>
            <g id="Group" transform="translate(282.000000, 0.000000)">
                <g fill="url(#linearGradient-1)" id="Rectangle">
                    <rect x="0" y="0" width="64" height="64"></rect>
                </g>
                <g transform="translate(8.000000, 8.000000)" fill="#FFFFFF" id="Icon-Service/48/Amazon-EKS-Cloud_48">
                    <path d="M40.812,39.8652228 L24.97,39.8482228 C23.207,39.8462228 21.683,38.5482228 21.502,36.8912228 C21.485,36.7322228 21.475,36.5662228 21.475,36.3912228 C21.475,34.1712228 22.89,33.3442228 24.077,33.0422228 C24.563,32.9182228 24.882,32.4522228 24.823,31.9542228 C24.797,31.7402228 24.784,31.5222228 24.784,31.3012228 C24.784,29.3812228 26.155,27.2392228 27.84,26.5252228 C28.616,26.1962228 29.333,26.0662228 29.983,26.0662228 C31.833,26.0662228 33.139,27.1252228 33.709,27.6982228 C34.335,28.3252228 34.845,29.1652228 35.184,30.1272228 C35.307,30.4762228 35.614,30.7292228 35.979,30.7832228 C36.348,30.8402228 36.711,30.6862228 36.932,30.3892228 C37.341,29.8362228 37.974,29.6032228 38.578,29.7792228 C39.326,29.9982228 39.825,30.7942228 39.924,31.9172228 C39.885,32.4272228 40.24,32.8902228 40.752,32.9782228 C41.695,33.1402228 43.886,33.8012228 43.886,36.4292228 C43.886,39.4882228 41.048,39.8392228 40.812,39.8652228 L40.812,39.8652228 Z M21,43.8282228 L4,33.4392228 L4,13.5542228 L18,4.80422277 L18,11.4462228 L10.47,16.1522228 C10.178,16.3352228 10,16.6552228 10,17.0002228 L10,30.0002228 C10,30.3512228 10.185,30.6772228 10.486,30.8572228 L19.484,36.2562228 C19.483,36.3022228 19.475,36.3442228 19.475,36.3912228 C19.475,36.6422228 19.489,36.8822228 19.514,37.1102228 C19.786,39.6002228 21.811,41.5072228 24.333,41.7912228 L21,43.8282228 Z M32.486,16.1262228 L24,11.4112228 L24,4.74822277 L39,13.5722228 L39,27.8342228 C38.14,27.6202228 37.257,27.7392228 36.5,28.1592228 C36.123,27.4512228 35.663,26.8242228 35.125,26.2852228 C34.481,25.6382228 33.76,25.1472228 33,24.7812228 L33,17.0002228 C33,16.6362228 32.803,16.3022228 32.486,16.1262228 L32.486,16.1262228 Z M41.841,31.1792228 C41.7,30.3982228 41.409,29.7222228 41,29.1752228 L41,13.0002228 C41,12.6452228 40.813,12.3182228 40.507,12.1382228 L23.507,2.13822277 C23.2,1.95622277 22.816,1.95422277 22.504,2.13222277 C22.193,2.31022277 22,2.64122277 22,3.00022277 L22,12.0002228 C22,12.3632228 22.198,12.6982228 22.515,12.8742228 L31,17.5882228 L31,24.1642228 C29.714,23.9732228 28.372,24.1282228 27.061,24.6832228 C26.041,25.1152228 25.138,25.8742228 24.418,26.8002228 L21.651,23.3402228 L26.708,17.0002228 L24.463,17.0002228 L20,22.2412228 L20,17.0002228 L18,17.0002228 L18,30.0002228 L20,30.0002228 L20,24.0002228 L23.454,28.3772228 C23.031,29.3052228 22.784,30.3092228 22.784,31.3012228 L22.784,31.3622228 C21.411,31.9102228 20.423,32.8952228 19.901,34.1742228 L12,29.4332228 L12,17.5542228 L19.531,12.8482228 C19.823,12.6652228 20,12.3442228 20,12.0002228 L20,3.00022277 C20,2.63622277 19.803,2.30222277 19.485,2.12522277 C19.168,1.94922277 18.78,1.95922277 18.47,2.15222277 L2.47,12.1522228 C2.178,12.3352228 2,12.6552228 2,13.0002228 L2,34.0002228 C2,34.3482228 2.182,34.6712228 2.479,34.8532228 L20.479,45.8532228 C20.639,45.9512228 20.82,46.0002228 21,46.0002228 C21.181,46.0002228 21.362,45.9512228 21.522,45.8532228 L28.071,41.8512228 L40.892,41.8622228 C42.62,41.7212228 45.886,40.4052228 45.886,36.4292228 C45.886,33.4042228 43.914,31.7782228 41.841,31.1792228 L41.841,31.1792228 Z" id="Fill-4"></path>
                </g>
            </g>
        </g>
        <g id="Sections-and-Labels" transform="translate(235.000000, 40.000000)">
            <rect id="Rectangle-EKS" stroke="#979797" fill-opacity="0" fill="#D8D8D8" x="0.5" y="0.5" width="237" height="254" rx="8"></rect>
            <text id="Artifactory-HA-Pod(s" font-family="Helvetica" font-size="12" font-weight="normal" fill="#000000">
                <tspan x="103" y="136">Artifactory-HA Pod(s)</tspan>
            </text>
            <text id="EKS-/-Fargate-Node(s" font-family="Helvetica" font-size="12" font-weight="normal" fill="#000000">
                <tspan x="7" y="14">EKS / Fargate Node(s)</tspan>
            </text>
        </g>
        <g id="Arrows-and-Connections" transform="translate(87.000000, 100.000000)" fill="#979797" fill-rule="nonzero">
            <path id="Path-1---Artifactory-to-PostgreSQL" d="M8.35480296,-4.185034 L8.479,-0.183 L12.3193465,-0.27891805 C154.276635,-3.46874888 231.604739,27.876527 244.129916,93.8856855 L244.493097,95.9172021 L243.506903,96.0827979 C232.29953,29.3380734 155.301354,-2.49344093 12.3332592,0.721013084 L8.511,0.816 L8.63684726,4.81054552 L-0.499754418,0.594800054 L8.35480296,-4.185034 Z"></path>
            <path id="Path-2---Artifactory-to-S3" d="M10.1129023,91.9250996 L9.469,95.872 L13.5561915,96.5285055 C166.057442,120.906387 242.86689,120.406746 243.500161,95.4959407 L244.499839,95.5213541 C243.837989,121.556338 166.975742,122.067392 13.4287234,97.5208738 L9.308,96.858 L8.66595457,100.808024 L0.506504211,94.919614 L10.1129023,91.9250996 Z"></path>
        </g>
    </g>
</svg>